G75*
%MOIN*%
%OFA0B0*%
%FSLAX24Y24*%
%IPPOS*%
%LPD*%
%AMOC8*
5,1,8,0,0,1.08239X$1,22.5*
%
%ADD10R,0.0217X0.0472*%
%ADD11R,0.0197X0.0236*%
%ADD12R,0.0354X0.0236*%
%ADD13R,0.0236X0.0197*%
%ADD14R,0.0374X0.0177*%
%ADD15R,0.0177X0.0118*%
%ADD16R,0.0118X0.0177*%
%ADD17R,0.0295X0.0118*%
%ADD18R,0.0118X0.0295*%
%ADD19R,0.0433X0.0236*%
D10*
X001590Y003227D03*
X001964Y003227D03*
X002338Y003227D03*
X002338Y004250D03*
X001590Y004250D03*
D11*
X002067Y004729D03*
X002461Y004729D03*
X005971Y002894D03*
X006364Y002894D03*
X006622Y006809D03*
X007016Y006809D03*
D12*
X007310Y006241D03*
X006710Y006241D03*
X006710Y005651D03*
X007310Y005651D03*
X003384Y005714D03*
X003384Y005123D03*
X001051Y004757D03*
X001051Y004166D03*
X001051Y003787D03*
X001051Y003196D03*
D13*
X002874Y005128D03*
X002874Y005522D03*
X003980Y005552D03*
X003980Y005945D03*
X004520Y005945D03*
X004520Y005552D03*
X004520Y006602D03*
X004520Y006995D03*
X003980Y006995D03*
X003980Y006602D03*
X001590Y006602D03*
X001590Y006995D03*
X001130Y006995D03*
X001130Y006602D03*
X007088Y004604D03*
X007088Y004210D03*
X007088Y003834D03*
X007088Y003440D03*
D14*
X002000Y005437D03*
X002000Y005811D03*
X002000Y006185D03*
X001134Y006185D03*
X001134Y005437D03*
D15*
X005124Y005868D03*
X005124Y006065D03*
X005124Y006262D03*
X005124Y006459D03*
X006128Y006459D03*
X006128Y006262D03*
X006128Y006065D03*
X006128Y005868D03*
D16*
X005921Y005661D03*
X005724Y005661D03*
X005528Y005661D03*
X005331Y005661D03*
X005331Y006665D03*
X005528Y006665D03*
X005724Y006665D03*
X005921Y006665D03*
D17*
X006631Y004656D03*
X006631Y004460D03*
X006631Y004263D03*
X006631Y004066D03*
X006631Y003869D03*
X006631Y003672D03*
X005056Y003672D03*
X005056Y003869D03*
X005056Y004066D03*
X005056Y004263D03*
X005056Y004460D03*
X005056Y004656D03*
D18*
X005352Y004952D03*
X005549Y004952D03*
X005745Y004952D03*
X005942Y004952D03*
X006139Y004952D03*
X006336Y004952D03*
X006336Y003377D03*
X006139Y003377D03*
X005942Y003377D03*
X005745Y003377D03*
X005549Y003377D03*
X005352Y003377D03*
D19*
X002977Y003030D03*
X002977Y003522D03*
X002977Y004015D03*
X002977Y004507D03*
X003843Y004507D03*
X003843Y004015D03*
X003843Y003522D03*
X003843Y003030D03*
M02*
